<svg xmlns="http://www.w3.org/2000/svg" viewBox="0 0 69 90"><defs><linearGradient id="a" x1="56.3058674%" x2="56.3058694%" y1="100%" y2="0%"><stop stop-color="#A0AFBD" offset="0%"/><stop stop-color="#808D99" offset="100%"/></linearGradient></defs><path fill="url(#a)" d="M621 252h4v2h-4v4h-2v-4h-4v-2h4v-4h2v4zm-12.834083 3H578.436l-3-16h-5L566 215.344c7.64-2.76 15.844-4.344 24.436-4.344 3.397634 0 6.734595.247697 10 .71786 3.265405-.470163 6.602366-.71786 10-.71786 8.592 0 16.796 1.584 24.436 4.344L630.436 239h-5l-.56785 3.028534C629.069888 243.895669 632 248.105652 632 253c0 6.627417-5.372583 12-12 12-5.945993 0-10.881927-4.324573-11.834083-10zm12.817924-13.960248L622.116295 235h5.000069l3.182248-16.970079c-5.259861-1.622788-10.639871-2.609414-16.089169-2.921821.221319.077648.442173.156285.662557.2359L610.436 239h-5l-2.25 12h4.979917c.952156-5.675427 5.88809-10 11.834083-10 .331253 0 .659372.013422.983841.039752zM600.436 178.509258c2.739196-2.195821 6.216213-3.509258 10-3.509258 8.836556 0 16 7.163444 16 16s-7.163444 16-16 16c-3.783787 0-7.260804-1.313437-10-3.509258-2.739196 2.195821-6.216213 3.509258-10 3.509258-8.836556 0-16-7.163444-16-16s7.163444-16 16-16c3.783787 0 7.260804 1.313437 10 3.509258zm2.800327 2.889617C605.245443 184.073182 606.436 187.397556 606.436 191c0 3.602444-1.190557 6.926818-3.199673 9.601125C605.241856 202.107429 607.734693 203 610.436 203c6.627417 0 12-5.372583 12-12s-5.372583-12-12-12c-2.701307 0-5.194144.892571-7.199673 2.398875zM590.436 203c6.627417 0 12-5.372583 12-12s-5.372583-12-12-12-12 5.372583-12 12 5.372583 12 12 12zm-19.862612 15.029921L573.755636 235h5.000069l3 16h17.36059l3-16h5.000069l3.182248-16.970079C603.828007 216.033591 597.175572 215 590.436 215c-6.739572 0-13.392007 1.033591-19.862612 3.029921zM620 261c4.418278 0 8-3.581722 8-8s-3.581722-8-8-8-8 3.581722-8 8 3.581722 8 8 8z" transform="translate(-566 -175)"/></svg>
